<svg width="28" height="27" viewBox="0 0 28 27" fill="none" xmlns="http://www.w3.org/2000/svg">
<path d="M10.3442 16.4543C10.2464 16.4543 8.19548 16.4549 7.24956 16.454C6.76259 16.4537 6.58885 16.285 6.58885 15.8124C6.58822 14.5985 6.58791 13.3846 6.58885 12.1707C6.58916 11.7041 6.77286 11.5261 7.25361 11.5258C8.19953 11.5252 10.2393 11.5255 10.3442 11.5255C10.3442 11.4423 10.3439 9.68981 10.3442 8.88275C10.3448 7.68959 10.5656 6.54746 11.1942 5.50171C11.8378 4.43134 12.7744 3.69815 13.9747 3.2742C14.7435 3.00248 15.5415 2.8941 16.3573 2.8935C17.3779 2.8929 18.3986 2.8938 19.4195 2.8956C19.8582 2.8962 20.0528 3.08325 20.0538 3.5093C20.0556 4.65112 20.0556 5.79295 20.0538 6.93447C20.0531 7.36502 19.8666 7.53796 19.418 7.54277C18.5813 7.55147 17.7441 7.54607 16.9084 7.5785C16.0643 7.5785 15.6203 7.97602 15.6203 8.8185C15.6 9.70962 15.6119 10.6016 15.6119 11.5252C15.6909 11.5252 18.0931 11.5249 19.2159 11.5252C19.7259 11.5252 19.9003 11.6942 19.9003 12.1887C19.9003 13.396 19.9 14.6036 19.899 15.8109C19.8987 16.2982 19.7349 16.4537 19.2218 16.454C18.099 16.4546 15.7062 16.4543 15.6016 16.4543V26.2257C15.6016 26.7466 15.4316 26.9127 14.8985 26.9127C13.5989 26.9127 12.2989 26.913 10.9993 26.9127C10.5282 26.9127 10.3445 26.7361 10.3445 26.2819C10.3442 23.0996 10.3442 16.566 10.3442 16.4543Z" fill="#3D6AD6"/>
</svg>
