<svg width="24" height="24" viewBox="0 0 24 24" fill="none" xmlns="http://www.w3.org/2000/svg">
<g clip-path="url(#clip0_700_8547)">
<path d="M22.7072 22.7073C22.3172 23.0973 21.6832 23.0973 21.2932 22.7073L19.8792 21.2933L18.4642 22.7073C18.0802 23.1043 17.4472 23.1153 17.0502 22.7323C16.6532 22.3483 16.6422 21.7153 17.0252 21.3183C17.0332 21.3103 17.0412 21.3013 17.0502 21.2933L18.4642 19.8793L17.0502 18.4643C16.6532 18.0803 16.6422 17.4473 17.0252 17.0503C17.4092 16.6533 18.0422 16.6423 18.4392 17.0253C18.4472 17.0333 18.4562 17.0413 18.4642 17.0503L19.8792 18.4643L21.2932 17.0503C21.6772 16.6533 22.3102 16.6423 22.7072 17.0253C23.1042 17.4093 23.1152 18.0423 22.7322 18.4393C22.7242 18.4473 22.7162 18.4563 22.7072 18.4643L21.2932 19.8793L22.7072 21.2933C23.0992 21.6823 23.1042 22.3123 22.7152 22.7043C22.7132 22.7063 22.7122 22.7083 22.7072 22.7073Z" fill="#AE2276"/>
<path d="M14.0351 20.0145C14.0311 16.7175 16.7001 14.0415 19.9961 14.0365C21.2791 14.0345 22.5291 14.4465 23.5591 15.2115C25.3321 8.82655 21.5931 2.21355 15.2091 0.440545C8.82511 -1.33245 2.21311 2.40555 0.440109 8.79055C-1.33289 15.1755 2.40611 21.7895 8.79011 23.5625C10.8901 24.1455 13.1091 24.1455 15.2091 23.5625C14.4471 22.5365 14.0351 21.2925 14.0351 20.0145ZM13.0001 12.0215C13.0001 12.2875 12.8941 12.5415 12.7061 12.7295L9.70111 15.7355C9.30311 16.1195 8.66911 16.1085 8.28511 15.7105C7.91011 15.3225 7.91011 14.7065 8.28511 14.3185L10.9971 11.6065V7.01255C10.9971 6.45955 11.4451 6.01055 11.9991 6.01055C12.5521 6.01055 13.0001 6.45955 13.0001 7.01255V12.0215Z" fill="#AE2276"/>
</g>
<defs>
<clipPath id="clip0_700_8547">
<rect width="24" height="24" fill="white"/>
</clipPath>
</defs>
</svg>
