<svg width="19" height="23" viewBox="0 0 19 23" fill="none" xmlns="http://www.w3.org/2000/svg">
<path d="M3.75 23H5.79125C6.22014 22.9959 6.63553 22.8495 6.97221 22.5838C7.30888 22.3181 7.54778 21.948 7.65137 21.5318C7.76233 21.1266 8.00335 20.7691 8.33736 20.5142C8.67137 20.2594 9.07987 20.1213 9.5 20.1213C9.92013 20.1213 10.3286 20.2594 10.6626 20.5142C10.9967 20.7691 11.2377 21.1266 11.3486 21.5318C11.4522 21.948 11.6911 22.3181 12.0278 22.5838C12.3645 22.8495 12.7799 22.9959 13.2087 23H15.25C16.0125 23 16.7438 22.6971 17.2829 22.1579C17.8221 21.6188 18.125 20.8875 18.125 20.125V16.2917H14.2917C14.0375 16.2917 13.7937 16.1907 13.614 16.011C13.4343 15.8313 13.3333 15.5875 13.3333 15.3333C13.3333 15.0792 13.4343 14.8354 13.614 14.6557C13.7937 14.476 14.0375 14.375 14.2917 14.375H18.125V4.79167C18.1235 3.5213 17.6182 2.30341 16.7199 1.40513C15.8216 0.506845 14.6037 0.0015217 13.3333 0L13.2087 0C12.7799 0.00407466 12.3645 0.150471 12.0278 0.416203C11.6911 0.681936 11.4522 1.05196 11.3486 1.46817C11.2377 1.87339 10.9967 2.23093 10.6626 2.48578C10.3286 2.74063 9.92013 2.87867 9.5 2.87867C9.07987 2.87867 8.67137 2.74063 8.33736 2.48578C8.00335 2.23093 7.76233 1.87339 7.65137 1.46817C7.54778 1.05196 7.30888 0.681936 6.97221 0.416203C6.63553 0.150471 6.22014 0.00407466 5.79125 0L5.66667 0C4.3963 0.0015217 3.17841 0.506845 2.28013 1.40513C1.38185 2.30341 0.876522 3.5213 0.875 4.79167V14.375H4.70833C4.9625 14.375 5.20625 14.476 5.38598 14.6557C5.5657 14.8354 5.66667 15.0792 5.66667 15.3333C5.66667 15.5875 5.5657 15.8313 5.38598 16.011C5.20625 16.1907 4.9625 16.2917 4.70833 16.2917H0.875V20.125C0.875 20.8875 1.1779 21.6188 1.71707 22.1579C2.25624 22.6971 2.9875 23 3.75 23ZM8.54167 14.375H10.4583C10.7125 14.375 10.9563 14.476 11.136 14.6557C11.3157 14.8354 11.4167 15.0792 11.4167 15.3333C11.4167 15.5875 11.3157 15.8313 11.136 16.011C10.9563 16.1907 10.7125 16.2917 10.4583 16.2917H8.54167C8.2875 16.2917 8.04375 16.1907 7.86402 16.011C7.6843 15.8313 7.58333 15.5875 7.58333 15.3333C7.58333 15.0792 7.6843 14.8354 7.86402 14.6557C8.04375 14.476 8.2875 14.375 8.54167 14.375Z" fill="#AE2276"/>
</svg>
