<svg width="16" height="16" viewBox="0 0 16 16" fill="none" xmlns="http://www.w3.org/2000/svg">
<g clip-path="url(#clip0_1808_14591)">
<path d="M13.3007 11.0942L13.2773 11.05L14.4776 10.4132C14.6799 10.3058 14.7594 10.061 14.6589 9.85518L14.0621 8.63443C13.8651 8.23136 13.8651 7.76866 14.0621 7.36559L14.107 7.38755L14.0621 7.36559L14.6589 6.14485C14.7594 5.93911 14.6799 5.69427 14.4776 5.58694L13.2773 4.95007C12.8809 4.73982 12.609 4.36549 12.5314 3.92355L12.2967 2.58515L12.3459 2.57651L12.2967 2.58515C12.2571 2.3596 12.0487 2.20827 11.8221 2.24033L10.4767 2.43064C10.0324 2.49353 9.59237 2.35052 9.26988 2.03855L8.2933 1.09381C8.2933 1.09381 8.2933 1.0938 8.29329 1.0938C8.12867 0.934611 7.87122 0.934622 7.70667 1.0938L6.73005 2.03855L6.69529 2.00261L6.73005 2.03855C6.40757 2.35048 5.96744 2.49353 5.52325 2.43064M13.3007 11.0942L4.18486 2.19083M13.3007 11.0942L13.2773 11.05C12.881 11.2604 12.609 11.6347 12.5315 12.0766L12.2967 13.415C12.2572 13.6405 12.049 13.7918 11.8221 13.7598C11.8221 13.7598 11.8221 13.7598 11.8221 13.7598L10.4767 13.5695C10.0324 13.5065 9.59243 13.6496 9.26995 13.9616L8.29333 14.9063C8.12878 15.0655 7.87132 15.0655 7.7067 14.9063C7.7067 14.9063 7.7067 14.9063 7.7067 14.9063L6.73011 13.9615L6.69535 13.9975L6.73011 13.9615C6.45762 13.6979 6.1011 13.5549 5.72892 13.5549C5.66076 13.5549 5.59208 13.5597 5.52332 13.5694L4.17792 13.7598C3.95131 13.7918 3.74292 13.6405 3.70333 13.4149L3.46855 12.0765C3.39101 11.6346 3.11905 11.2603 2.72271 11.05L1.52241 10.4131L1.49897 10.4573L1.52241 10.4131C1.32011 10.3058 1.24055 10.061 1.34111 9.85524L1.93786 8.63447L1.89294 8.61251L1.93786 8.63446C2.13488 8.23136 2.13488 7.76872 1.93786 7.36562L1.89294 7.38758L1.93786 7.36562L1.34111 6.14485C1.24055 5.93911 1.32011 5.69427 1.52241 5.58695L1.49897 5.54278L1.52241 5.58694L2.72271 4.95007L2.72272 4.95007C3.11902 4.73975 3.39102 4.36546 3.46852 3.92352L3.70327 2.58516L3.65402 2.57651L3.70327 2.58515M13.3007 11.0942L3.70327 2.58515M5.52325 2.43064L5.53026 2.38114L5.52326 2.43065L5.52325 2.43064ZM5.52325 2.43064L4.17787 2.24034M4.17787 2.24034L4.18486 2.19083M4.17787 2.24034C3.95104 2.2083 3.74286 2.35959 3.70327 2.58515M4.17787 2.24034L4.17786 2.24033L4.18486 2.19083M4.18486 2.19083L3.70327 2.58515M13.7567 4.04655L13.7332 4.09072L13.7567 4.04655C13.6408 3.9851 13.5615 3.87596 13.5389 3.7468L13.3041 2.40841C13.1687 1.63666 12.4545 1.11783 11.6789 1.22758L10.3335 1.41788C10.2035 1.43623 10.0754 1.39455 9.98109 1.30336L9.00451 0.35862C8.44135 -0.186189 7.55871 -0.186225 6.99558 0.358622L6.01896 1.30346C5.92469 1.39466 5.7965 1.43627 5.66654 1.41798L4.32118 1.22767C4.32118 1.22767 4.32118 1.22767 4.32118 1.22767C3.54525 1.11786 2.83131 1.63676 2.69594 2.4085L2.46119 3.74683C2.46119 3.74683 2.46119 3.74683 2.46119 3.74684C2.43851 3.87602 2.35925 3.98513 2.2434 4.04662L1.0431 4.68349C0.350971 5.05069 0.0782185 5.89016 0.422309 6.5941L0.46723 6.57214L0.422309 6.5941L1.01902 7.81485C1.07663 7.93271 1.07663 8.06757 1.01903 8.1854L0.422278 9.40614C0.0781864 10.1101 0.350941 10.9495 1.04307 11.3167L2.24338 11.9536L2.24338 11.9536C2.35925 12.0151 2.43851 12.1242 2.46119 12.2534L2.69594 13.5917C2.81917 14.2943 3.42181 14.7872 4.1144 14.7872C4.18258 14.7872 4.25173 14.7824 4.32121 14.7725L5.66661 14.5822L5.66663 14.5822C5.79641 14.5638 5.92469 14.6056 6.019 14.6968L6.99558 15.6415C7.27709 15.9138 7.63847 16.0501 8.00003 16.0501C8.36149 16.0501 8.72309 15.9138 9.00448 15.6415L9.98109 14.6968C9.98109 14.6968 9.98109 14.6968 9.98109 14.6968C10.0754 14.6056 10.2036 14.564 10.3335 14.5822L11.6789 14.7725C12.4549 14.8823 13.1687 14.3635 13.3041 13.5917L13.5389 12.2534C13.5616 12.1242 13.6408 12.0151 13.7567 11.9536L14.957 11.3167C15.6491 10.9495 15.9219 10.1101 15.5778 9.40611L14.981 8.18534C14.9234 8.06747 14.9234 7.93261 14.981 7.81478L15.5778 6.59401L15.5329 6.57205L15.5778 6.59401C15.9219 5.89006 15.6491 5.05066 14.957 4.68343L13.7567 4.04655Z" fill="#AE2276" stroke="#AE2276" stroke-width="0.1"/>
<path d="M10.6834 4.59393C10.8831 4.39422 11.207 4.39421 11.4067 4.59393C11.6064 4.79367 11.6064 5.11745 11.4066 5.31719L10.6834 4.59393ZM10.6834 4.59393L4.59319 10.6842M10.6834 4.59393L4.59319 10.6842M4.59319 10.6842C4.39348 10.8839 4.39348 11.2077 4.59319 11.4074M4.59319 10.6842L4.59319 11.4074M4.59319 11.4074C4.69304 11.5073 4.82401 11.5572 4.9548 11.5572M4.59319 11.4074L4.9548 11.5572M4.9548 11.5572C5.08556 11.5572 5.21658 11.5073 5.3164 11.4074M4.9548 11.5572L5.3164 11.4074M5.3164 11.4074C5.3164 11.4074 5.31641 11.4074 5.31641 11.4074M5.3164 11.4074L5.31641 11.4074M5.31641 11.4074L11.4066 5.3172L5.31641 11.4074Z" fill="#AE2276" stroke="#AE2276" stroke-width="0.1"/>
<path d="M6.15436 3.79766C5.19387 3.79766 4.41252 4.57901 4.41252 5.53949C4.41252 6.49997 5.19387 7.28132 6.15436 7.28132C7.11484 7.28132 7.89619 6.49997 7.89619 5.53949C7.89619 4.57901 7.11484 3.79766 6.15436 3.79766ZM6.15436 6.25849C5.75794 6.25849 5.43536 5.93591 5.43536 5.53946C5.43536 5.14304 5.75794 4.82046 6.15436 4.82046C6.55078 4.82046 6.87339 5.14305 6.87339 5.53946C6.87336 5.93591 6.55077 6.25849 6.15436 6.25849Z" fill="#AE2276" stroke="#AE2276" stroke-width="0.1"/>
<path d="M9.84564 8.71953C8.88516 8.71953 8.10381 9.50088 8.10381 10.4614C8.10381 11.4218 8.88516 12.2032 9.84564 12.2032C10.8061 12.2032 11.5875 11.4218 11.5875 10.4614C11.5875 9.50088 10.8061 8.71953 9.84564 8.71953ZM9.84564 11.1804C9.44923 11.1804 9.12662 10.8578 9.12662 10.4614C9.12662 10.065 9.4492 9.74237 9.84564 9.74237C10.2421 9.74237 10.5646 10.065 10.5646 10.4614C10.5646 10.8578 10.2421 11.1804 9.84564 11.1804Z" fill="#AE2276" stroke="#AE2276" stroke-width="0.1"/>
</g>
<defs>
<clipPath id="clip0_1808_14591">
<rect width="16" height="16" fill="white"/>
</clipPath>
</defs>
</svg>
