<svg width="20" height="19" viewBox="0 0 20 19" fill="none" xmlns="http://www.w3.org/2000/svg">
<path d="M14.5833 0.597168C13.6449 0.611764 12.727 0.873712 11.9223 1.35656C11.1175 1.83941 10.4544 2.52606 9.99998 3.34717C9.54551 2.52606 8.88242 1.83941 8.07767 1.35656C7.27293 0.873712 6.35502 0.611764 5.41664 0.597168C3.92076 0.66216 2.5114 1.31655 1.49646 2.41736C0.481525 3.51818 -0.0564834 4.97594 -2.45855e-05 6.47217C-2.45855e-05 10.2613 3.98831 14.3997 7.33331 17.2055C8.08016 17.8331 9.02444 18.1772 9.99998 18.1772C10.9755 18.1772 11.9198 17.8331 12.6666 17.2055C16.0116 14.3997 20 10.2613 20 6.47217C20.0564 4.97594 19.5184 3.51818 18.5035 2.41736C17.4886 1.31655 16.0792 0.66216 14.5833 0.597168ZM11.5958 15.9305C11.1491 16.3066 10.5839 16.5129 9.99998 16.5129C9.41601 16.5129 8.85082 16.3066 8.40414 15.9305C4.12248 12.338 1.66664 8.89133 1.66664 6.47217C1.60968 5.41776 1.97195 4.38361 2.67444 3.59525C3.37694 2.80689 4.36267 2.32829 5.41664 2.26383C6.47061 2.32829 7.45634 2.80689 8.15884 3.59525C8.86134 4.38361 9.22361 5.41776 9.16664 6.47217C9.16664 6.69318 9.25444 6.90514 9.41072 7.06142C9.567 7.2177 9.77896 7.3055 9.99998 7.3055C10.221 7.3055 10.433 7.2177 10.5892 7.06142C10.7455 6.90514 10.8333 6.69318 10.8333 6.47217C10.7763 5.41776 11.1386 4.38361 11.8411 3.59525C12.5436 2.80689 13.5293 2.32829 14.5833 2.26383C15.6373 2.32829 16.623 2.80689 17.3255 3.59525C18.028 4.38361 18.3903 5.41776 18.3333 6.47217C18.3333 8.89133 15.8775 12.338 11.5958 15.9272V15.9305Z" fill="#1B1B1B"/>
</svg>
