<svg width="16" height="17" viewBox="0 0 16 17" fill="none" xmlns="http://www.w3.org/2000/svg">
<g clip-path="url(#clip0_4529_3484)">
<path d="M0.666667 3.6669H2.49067C2.63376 4.19339 2.94612 4.65816 3.37955 4.98952C3.81299 5.32088 4.34341 5.50041 4.889 5.50041C5.43459 5.50041 5.96501 5.32088 6.39845 4.98952C6.83188 4.65816 7.14424 4.19339 7.28733 3.6669H15.3333C15.5101 3.6669 15.6797 3.59666 15.8047 3.47164C15.9298 3.34661 16 3.17704 16 3.00023C16 2.82342 15.9298 2.65385 15.8047 2.52883C15.6797 2.4038 15.5101 2.33357 15.3333 2.33357H7.28733C7.14424 1.80708 6.83188 1.3423 6.39845 1.01095C5.96501 0.679588 5.43459 0.500061 4.889 0.500061C4.34341 0.500061 3.81299 0.679588 3.37955 1.01095C2.94612 1.3423 2.63376 1.80708 2.49067 2.33357H0.666667C0.489856 2.33357 0.320286 2.4038 0.195262 2.52883C0.0702379 2.65385 0 2.82342 0 3.00023C0 3.17704 0.0702379 3.34661 0.195262 3.47164C0.320286 3.59666 0.489856 3.6669 0.666667 3.6669ZM4.88867 1.83357C5.11941 1.83357 5.34497 1.90199 5.53683 2.03019C5.72869 2.15838 5.87822 2.34059 5.96653 2.55377C6.05483 2.76695 6.07793 3.00153 6.03292 3.22784C5.9879 3.45415 5.87679 3.66203 5.71362 3.82519C5.55046 3.98835 5.34258 4.09947 5.11627 4.14448C4.88996 4.1895 4.65538 4.1664 4.4422 4.07809C4.22902 3.98979 4.04681 3.84026 3.91862 3.6484C3.79042 3.45654 3.722 3.23098 3.722 3.00023C3.72235 2.69092 3.84538 2.39438 4.0641 2.17567C4.28281 1.95695 4.57936 1.83392 4.88867 1.83357Z" fill="#4B4B4B"/>
<path d="M15.3333 7.83273H13.5093C13.3665 7.30612 13.0542 6.84118 12.6208 6.50969C12.1874 6.17819 11.657 5.99858 11.1113 5.99858C10.5657 5.99858 10.0352 6.17819 9.60182 6.50969C9.16842 6.84118 8.85619 7.30612 8.71333 7.83273H0.666667C0.489856 7.83273 0.320286 7.90297 0.195262 8.028C0.0702379 8.15302 0 8.32259 0 8.4994C0 8.67621 0.0702379 8.84578 0.195262 8.9708C0.320286 9.09583 0.489856 9.16606 0.666667 9.16606H8.71333C8.85619 9.69267 9.16842 10.1576 9.60182 10.4891C10.0352 10.8206 10.5657 11.0002 11.1113 11.0002C11.657 11.0002 12.1874 10.8206 12.6208 10.4891C13.0542 10.1576 13.3665 9.69267 13.5093 9.16606H15.3333C15.5101 9.16606 15.6797 9.09583 15.8047 8.9708C15.9298 8.84578 16 8.67621 16 8.4994C16 8.32259 15.9298 8.15302 15.8047 8.028C15.6797 7.90297 15.5101 7.83273 15.3333 7.83273ZM11.1113 9.66606C10.8806 9.66606 10.655 9.59764 10.4632 9.46944C10.2713 9.34125 10.1218 9.15904 10.0335 8.94586C9.94517 8.73268 9.92207 8.49811 9.96708 8.27179C10.0121 8.04548 10.1232 7.8376 10.2864 7.67444C10.4495 7.51128 10.6574 7.40017 10.8837 7.35515C11.11 7.31014 11.3446 7.33324 11.5578 7.42154C11.771 7.50984 11.9532 7.65938 12.0814 7.85123C12.2096 8.04309 12.278 8.26865 12.278 8.4994C12.2776 8.80871 12.1546 9.10525 11.9359 9.32397C11.7172 9.54268 11.4206 9.66571 11.1113 9.66606Z" fill="#4B4B4B"/>
<path d="M15.3333 13.3335H7.28733C7.14424 12.8071 6.83188 12.3423 6.39845 12.0109C5.96501 11.6796 5.43459 11.5 4.889 11.5C4.34341 11.5 3.81299 11.6796 3.37955 12.0109C2.94612 12.3423 2.63376 12.8071 2.49067 13.3335H0.666667C0.489856 13.3335 0.320286 13.4038 0.195262 13.5288C0.0702379 13.6538 0 13.8234 0 14.0002C0 14.177 0.0702379 14.3466 0.195262 14.4716C0.320286 14.5966 0.489856 14.6669 0.666667 14.6669H2.49067C2.63376 15.1934 2.94612 15.6581 3.37955 15.9895C3.81299 16.3208 4.34341 16.5004 4.889 16.5004C5.43459 16.5004 5.96501 16.3208 6.39845 15.9895C6.83188 15.6581 7.14424 15.1934 7.28733 14.6669H15.3333C15.5101 14.6669 15.6797 14.5966 15.8047 14.4716C15.9298 14.3466 16 14.177 16 14.0002C16 13.8234 15.9298 13.6538 15.8047 13.5288C15.6797 13.4038 15.5101 13.3335 15.3333 13.3335ZM4.88867 15.1669C4.65792 15.1669 4.43236 15.0984 4.2405 14.9703C4.04864 14.8421 3.89911 14.6599 3.81081 14.4467C3.72251 14.2335 3.6994 13.9989 3.74442 13.7726C3.78943 13.5463 3.90055 13.3384 4.06371 13.1753C4.22687 13.0121 4.43475 12.901 4.66106 12.856C4.88737 12.8109 5.12195 12.8341 5.33513 12.9224C5.54831 13.0107 5.73052 13.1602 5.85871 13.352C5.98691 13.5439 6.05533 13.7695 6.05533 14.0002C6.0548 14.3095 5.93172 14.6059 5.71304 14.8246C5.49436 15.0433 5.19792 15.1663 4.88867 15.1669Z" fill="#4B4B4B"/>
</g>
<defs>
<clipPath id="clip0_4529_3484">
<rect width="16" height="16" fill="white" transform="translate(0 0.5)"/>
</clipPath>
</defs>
</svg>
