<svg width="16" height="16" viewBox="0 0 16 16" fill="none" xmlns="http://www.w3.org/2000/svg">
<path d="M13.9999 8.28332V7.33398C13.9999 5.74269 13.3678 4.21656 12.2426 3.09134C11.1173 1.96613 9.59123 1.33398 7.99993 1.33398C6.40863 1.33398 4.8825 1.96613 3.75729 3.09134C2.63207 4.21656 1.99993 5.74269 1.99993 7.33398V8.28332C1.3007 8.59121 0.72846 9.12995 0.379007 9.80936C0.0295548 10.4888 -0.0758997 11.2676 0.0802981 12.0155C0.236496 12.7634 0.644865 13.4349 1.23704 13.9176C1.82921 14.4004 2.56925 14.665 3.33326 14.6673C3.68688 14.6673 4.02602 14.5268 4.27607 14.2768C4.52612 14.0267 4.66659 13.6876 4.66659 13.334V9.33398C4.66659 8.98036 4.52612 8.64122 4.27607 8.39118C4.02602 8.14113 3.68688 8.00065 3.33326 8.00065V7.33398C3.33326 6.09631 3.82492 4.90932 4.70009 4.03415C5.57526 3.15898 6.76225 2.66732 7.99993 2.66732C9.2376 2.66732 10.4246 3.15898 11.2998 4.03415C12.1749 4.90932 12.6666 6.09631 12.6666 7.33398V8.00065C12.313 8.00065 11.9738 8.14113 11.7238 8.39118C11.4737 8.64122 11.3333 8.98036 11.3333 9.33398V13.334H9.33326C9.15645 13.334 8.98688 13.4042 8.86186 13.5292C8.73683 13.6543 8.66659 13.8238 8.66659 14.0007C8.66659 14.1775 8.73683 14.347 8.86186 14.4721C8.98688 14.5971 9.15645 14.6673 9.33326 14.6673H12.6666C13.4306 14.665 14.1706 14.4004 14.7628 13.9176C15.355 13.4349 15.7634 12.7634 15.9196 12.0155C16.0758 11.2676 15.9703 10.4888 15.6208 9.80936C15.2714 9.12995 14.6992 8.59121 13.9999 8.28332ZM3.33326 13.334C2.80283 13.334 2.29412 13.1233 1.91905 12.7482C1.54397 12.3731 1.33326 11.8644 1.33326 11.334C1.33326 10.8036 1.54397 10.2948 1.91905 9.91977C2.29412 9.5447 2.80283 9.33398 3.33326 9.33398V13.334ZM12.6666 13.334V9.33398C13.197 9.33398 13.7057 9.5447 14.0808 9.91977C14.4559 10.2948 14.6666 10.8036 14.6666 11.334C14.6666 11.8644 14.4559 12.3731 14.0808 12.7482C13.7057 13.1233 13.197 13.334 12.6666 13.334Z" fill="#AE2276"/>
</svg>
