<svg width="24" height="24" viewBox="0 0 24 24" fill="none" xmlns="http://www.w3.org/2000/svg">
<g clip-path="url(#clip0_4897_10414)">
<path d="M22.9748 8.6949L15.8888 1.60891C13.7393 -0.535003 10.2602 -0.535003 8.11077 1.60891L1.02478 8.6949C0.366284 9.34988 -0.00280884 10.2411 -0.000230725 11.1699V21.5479C0.0019724 22.9025 1.10016 23.9997 2.4548 24.0009H21.5447C22.8994 23.9998 23.9975 22.9025 23.9997 21.5479V11.1699C24.0023 10.2411 23.6333 9.34988 22.9748 8.6949ZM20.9997 21.0009H15.9998V17.8189C15.9998 15.7102 14.2904 14.0009 12.1818 14.0009H11.8178C9.70916 14.0009 7.99977 15.7102 7.99977 17.8189V21.0009H2.99976V11.1699C3.00009 11.0373 3.0525 10.9102 3.14578 10.8159L10.2318 3.72991C11.2079 2.75346 12.7909 2.75327 13.7673 3.72944C13.7674 3.72958 13.7676 3.72977 13.7678 3.72991L20.8538 10.8159C20.947 10.9102 20.9994 11.0373 20.9998 11.1699V21.0009H20.9997Z" fill="#7A7A7A"/>
</g>
<defs>
<clipPath id="clip0_4897_10414">
<rect width="24" height="24" fill="white"/>
</clipPath>
</defs>
</svg>
