<svg width="24" height="24" viewBox="0 0 24 24" fill="none" xmlns="http://www.w3.org/2000/svg">
<path d="M12 5.1582C9.5432 5.1582 7.5444 7.157 7.5444 9.61381C7.5444 12.0706 9.5432 14.0694 12 14.0694C14.4568 14.0694 16.4556 12.0706 16.4556 9.61381C16.4556 7.157 14.4569 5.1582 12 5.1582ZM12 12.1934C10.5776 12.1934 9.42043 11.0362 9.42043 9.61381C9.42043 8.19144 10.5776 7.03423 12 7.03423C13.4224 7.03423 14.5796 8.19144 14.5796 9.61381C14.5796 11.0362 13.4224 12.1934 12 12.1934Z" fill="#AE2276"/>
<path d="M12 0C6.69838 0 2.38522 4.3132 2.38522 9.61477V9.88055C2.38522 12.5618 3.92244 15.6863 6.95432 19.1671C9.15219 21.6905 11.3194 23.45 11.4105 23.5237L12 24L12.5895 23.5237C12.6807 23.45 14.8478 21.6905 17.0457 19.1671C20.0775 15.6863 21.6148 12.5618 21.6148 9.88059V9.61481C21.6148 4.3132 17.3016 0 12 0ZM19.7387 9.88059C19.7387 14.4118 13.9004 19.8968 12 21.5619C10.0991 19.8963 4.26125 14.4114 4.26125 9.88059V9.61481C4.26125 5.34769 7.73286 1.87608 12 1.87608C16.2671 1.87608 19.7387 5.34769 19.7387 9.61481V9.88059Z" fill="#AE2276"/>
</svg>
