<svg width="16" height="16" viewBox="0 0 16 16" fill="none" xmlns="http://www.w3.org/2000/svg">
<g clip-path="url(#clip0_5070_10266)">
<path d="M12.714 11.4753C13.9651 10.2097 14.6668 8.50192 14.6668 6.72232C14.6668 4.94272 13.9651 3.23488 12.714 1.96932C12.0976 1.34547 11.3636 0.850166 10.5544 0.512118C9.7452 0.174069 8.87695 0 7.99998 0C7.12302 0 6.25477 0.174069 5.44558 0.512118C4.63638 0.850166 3.90233 1.34547 3.28598 1.96932C2.03195 3.2378 1.33008 4.9505 1.33332 6.73422C1.33657 8.51793 2.04467 10.2281 3.30332 11.492L5.69265 13.718C6.30456 14.323 7.1297 14.6633 7.9902 14.6655C8.85069 14.6678 9.6776 14.3318 10.2927 13.73L12.714 11.4753ZM8.89465 9.76598C8.61663 9.90366 8.31057 9.97529 8.00032 9.97529C7.69007 9.97529 7.38401 9.90366 7.10599 9.76598L5.77265 9.09932C5.4396 8.9341 5.15948 8.67891 4.964 8.36267C4.76853 8.04642 4.66552 7.68176 4.66665 7.30998V5.33332C4.66534 4.9615 4.76819 4.59674 4.96354 4.28037C5.1589 3.96401 5.43896 3.70868 5.77199 3.54332L7.10532 2.87665C7.38321 2.73853 7.68932 2.66665 7.99965 2.66665C8.30998 2.66665 8.61609 2.73853 8.89398 2.87665L10.2273 3.54332C10.5605 3.70859 10.8407 3.96387 11.0361 4.28025C11.2316 4.59662 11.3346 4.96143 11.3333 5.33332V7.31065C11.3345 7.68236 11.2316 8.04697 11.0363 8.36321C10.8409 8.67945 10.5609 8.93467 10.228 9.09998L8.89465 9.76598ZM9.96599 5.12932C9.98786 5.19513 9.99933 5.26396 9.99998 5.33332V7.31065C10.0005 7.43463 9.96623 7.55628 9.90106 7.66176C9.83589 7.76723 9.74243 7.85231 9.63132 7.90732L8.29798 8.57398C8.20528 8.62003 8.10317 8.64399 7.99965 8.64399C7.89614 8.64399 7.79403 8.62003 7.70132 8.57398L6.36798 7.90732C6.25689 7.85217 6.1635 7.76695 6.09845 7.66135C6.03339 7.55575 5.99928 7.43401 5.99998 7.30998V5.33332C6.00105 5.26531 6.01251 5.19786 6.03398 5.13332L7.48732 5.85998C7.6465 5.93955 7.82202 5.98097 7.99998 5.98097C8.17795 5.98097 8.35347 5.93955 8.51265 5.85998L9.96599 5.12932ZM13.3333 15.3333C13.3333 15.5101 13.2631 15.6797 13.1381 15.8047C13.013 15.9297 12.8435 16 12.6667 16H3.33332C3.15651 16 2.98694 15.9297 2.86191 15.8047C2.73689 15.6797 2.66665 15.5101 2.66665 15.3333C2.66665 15.1565 2.73689 14.9869 2.86191 14.8619C2.98694 14.7369 3.15651 14.6666 3.33332 14.6666H12.6667C12.8435 14.6666 13.013 14.7369 13.1381 14.8619C13.2631 14.9869 13.3333 15.1565 13.3333 15.3333Z" fill="#AE2276"/>
</g>
<defs>
<clipPath id="clip0_5070_10266">
<rect width="16" height="16" fill="white"/>
</clipPath>
</defs>
</svg>
