<svg width="27" height="27" viewBox="0 0 27 27" fill="none" xmlns="http://www.w3.org/2000/svg">
<g opacity="0.6" clip-path="url(#clip0_1641_15605)">
<path d="M13.5001 6.75C12.6101 6.75 11.7401 7.01392 11 7.50839C10.26 8.00285 9.68325 8.70566 9.34265 9.52792C9.00206 10.3502 8.91295 11.255 9.08658 12.1279C9.26021 13.0008 9.6888 13.8026 10.3181 14.432C10.9475 15.0613 11.7493 15.4899 12.6222 15.6635C13.4951 15.8372 14.3999 15.7481 15.2222 15.4075C16.0445 15.0669 16.7473 14.4901 17.2417 13.7501C17.7362 13.01 18.0001 12.14 18.0001 11.25C18.0001 10.0565 17.526 8.91193 16.6821 8.06802C15.8382 7.22411 14.6936 6.75 13.5001 6.75ZM13.5001 13.5C13.0551 13.5 12.6201 13.368 12.2501 13.1208C11.8801 12.8736 11.5917 12.5222 11.4214 12.111C11.2511 11.6999 11.2065 11.2475 11.2933 10.811C11.3802 10.3746 11.5945 9.97368 11.9091 9.65901C12.2238 9.34434 12.6247 9.13005 13.0612 9.04323C13.4976 8.95642 13.95 9.00097 14.3612 9.17127C14.7723 9.34157 15.1237 9.62996 15.3709 9.99997C15.6182 10.37 15.7501 10.805 15.7501 11.25C15.7501 11.8467 15.5131 12.419 15.0911 12.841C14.6691 13.2629 14.0969 13.5 13.5001 13.5Z" fill="#B3B3B3"/>
<path d="M13.4999 27.0003C12.5526 27.0051 11.6179 26.783 10.7741 26.3524C9.93031 25.9217 9.20196 25.2952 8.65004 24.5253C4.36266 18.6112 2.18804 14.1652 2.18804 11.3099C2.18804 8.30983 3.37982 5.43261 5.50121 3.31122C7.6226 1.18983 10.4998 -0.00195312 13.4999 -0.00195312C16.5 -0.00195312 19.3772 1.18983 21.4986 3.31122C23.62 5.43261 24.8118 8.30983 24.8118 11.3099C24.8118 14.1652 22.6372 18.6112 18.3498 24.5253C17.7979 25.2952 17.0695 25.9217 16.2257 26.3524C15.3819 26.783 14.4472 27.0051 13.4999 27.0003ZM13.4999 2.45392C11.1514 2.4566 8.89981 3.39074 7.23914 5.0514C5.57848 6.71207 4.64434 8.96364 4.64166 11.3122C4.64166 13.5734 6.77129 17.755 10.6368 23.0864C10.9649 23.5384 11.3955 23.9063 11.8931 24.16C12.3907 24.4136 12.9414 24.5459 13.4999 24.5459C14.0585 24.5459 14.6091 24.4136 15.1067 24.16C15.6044 23.9063 16.0349 23.5384 16.363 23.0864C20.2285 17.755 22.3582 13.5734 22.3582 11.3122C22.3555 8.96364 21.4213 6.71207 19.7607 5.0514C18.1 3.39074 15.8484 2.4566 13.4999 2.45392Z" fill="#B3B3B3"/>
</g>
<defs>
<clipPath id="clip0_1641_15605">
<rect width="27" height="27" fill="white"/>
</clipPath>
</defs>
</svg>
