<svg width="24" height="24" viewBox="0 0 24 24" fill="none" xmlns="http://www.w3.org/2000/svg">
<path d="M14.0351 20.0145C14.0311 16.7175 16.7001 14.0415 19.9961 14.0365C21.2791 14.0345 22.5291 14.4465 23.5591 15.2115C25.3321 8.82655 21.5931 2.21355 15.2091 0.440545C8.82511 -1.33245 2.21311 2.40555 0.440109 8.79055C-1.33289 15.1755 2.40611 21.7895 8.79011 23.5625C10.8901 24.1455 13.1091 24.1455 15.2091 23.5625C14.4471 22.5365 14.0351 21.2925 14.0351 20.0145ZM13.0001 12.0215C13.0001 12.2875 12.8941 12.5415 12.7061 12.7295L9.70111 15.7355C9.30311 16.1195 8.66911 16.1085 8.28511 15.7105C7.91011 15.3225 7.91011 14.7065 8.28511 14.3185L10.9971 11.6065V7.01255C10.9971 6.45955 11.4451 6.01055 11.9991 6.01055C12.5521 6.01055 13.0001 6.45955 13.0001 7.01255V12.0215Z" fill="#AE2276"/>
</svg>
