<svg width="10" height="10" viewBox="0 0 10 10" fill="none" xmlns="http://www.w3.org/2000/svg">
<path d="M0.552875 5.16661L2.03621 6.24994L1.47288 7.99452C1.38184 8.2651 1.38068 8.55786 1.46959 8.82914C1.55849 9.10043 1.73269 9.33572 1.96621 9.49994C2.19573 9.66943 2.47387 9.76023 2.75919 9.75881C3.04451 9.75738 3.32173 9.6638 3.54954 9.49202L4.99996 8.42452L6.45079 9.49078C6.6799 9.6593 6.95654 9.75083 7.24095 9.75222C7.52535 9.7536 7.80287 9.66477 8.03361 9.49849C8.26435 9.33221 8.43642 9.09704 8.52508 8.82681C8.61374 8.55657 8.61443 8.26518 8.52704 7.99452L7.96371 6.24994L9.44704 5.16661C9.67585 4.99932 9.84594 4.764 9.93302 4.49427C10.0201 4.22454 10.0197 3.93418 9.93191 3.66469C9.84411 3.39519 9.67339 3.16033 9.44413 2.99365C9.21488 2.82698 8.93882 2.73701 8.65538 2.73661H6.83329L6.28038 1.01327C6.19343 0.742006 6.02257 0.505363 5.79245 0.337467C5.56232 0.169572 5.28482 0.0791016 4.99996 0.0791016C4.7151 0.0791016 4.4376 0.169572 4.20747 0.337467C3.97735 0.505363 3.80649 0.742006 3.71954 1.01327L3.16663 2.73661H1.34621C1.06277 2.73701 0.786705 2.82698 0.55745 2.99365C0.328195 3.16033 0.157475 3.39519 0.0696756 3.66469C-0.0181242 3.93418 -0.0185128 4.22454 0.0685652 4.49427C0.155643 4.764 0.325734 4.99932 0.554542 5.16661H0.552875Z" fill="#7A7A7A"/>
</svg>
