<svg width="9" height="16" viewBox="0 0 9 16" fill="none" xmlns="http://www.w3.org/2000/svg">
<path d="M1.66656 15.9998C1.57883 16.0003 1.49185 15.9835 1.41063 15.9503C1.3294 15.9171 1.25552 15.8682 1.19323 15.8064C1.13075 15.7445 1.08115 15.6707 1.0473 15.5895C1.01346 15.5083 0.996033 15.4211 0.996033 15.3331C0.996033 15.2451 1.01346 15.158 1.0473 15.0767C1.08115 14.9955 1.13075 14.9218 1.19323 14.8598L6.6399 9.41312C7.01443 9.03812 7.22481 8.52979 7.22481 7.99979C7.22481 7.46979 7.01443 6.96146 6.6399 6.58646L1.19323 1.1398C1.0677 1.01426 0.99717 0.843998 0.99717 0.666464C0.99717 0.48893 1.0677 0.318667 1.19323 0.193131C1.31877 0.0675955 1.48903 -0.00292969 1.66656 -0.00292969C1.8441 -0.00292969 2.01436 0.0675955 2.1399 0.193131L7.58657 5.63979C7.89699 5.94943 8.14327 6.31727 8.31132 6.72223C8.47936 7.1272 8.56586 7.56134 8.56586 7.99979C8.56586 8.43824 8.47936 8.87238 8.31132 9.27734C8.14327 9.68231 7.89699 10.0501 7.58657 10.3598L2.1399 15.8064C2.07761 15.8682 2.00373 15.9171 1.9225 15.9503C1.84128 15.9835 1.7543 16.0003 1.66656 15.9998Z" fill="#1B1B1B"/>
</svg>
