<svg width="13" height="13" viewBox="0 0 13 13" fill="none" xmlns="http://www.w3.org/2000/svg">
<path d="M0.718683 6.71678L2.64702 8.12512L1.91468 10.3931C1.79633 10.7448 1.79484 11.1254 1.91041 11.4781C2.02598 11.8308 2.25244 12.1366 2.55602 12.3501C2.85439 12.5705 3.21598 12.6885 3.58689 12.6866C3.9578 12.6848 4.31819 12.5631 4.61435 12.3398L6.49989 10.9521L8.38598 12.3382C8.68381 12.5573 9.04345 12.6763 9.41318 12.6781C9.7829 12.6799 10.1437 12.5644 10.4436 12.3482C10.7436 12.1321 10.9673 11.8263 11.0825 11.475C11.1978 11.1237 11.1987 10.7449 11.0851 10.3931L10.3528 8.12512L12.2811 6.71678C12.5786 6.49931 12.7997 6.1934 12.9129 5.84275C13.0261 5.49209 13.0256 5.11463 12.9114 4.76429C12.7973 4.41394 12.5754 4.10862 12.2773 3.89194C11.9793 3.67526 11.6204 3.55831 11.2519 3.55778H8.88323L8.16443 1.31745C8.0514 0.964803 7.82929 0.657167 7.53013 0.438903C7.23096 0.220639 6.87021 0.103027 6.49989 0.103027C6.12957 0.103027 5.76882 0.220639 5.46966 0.438903C5.1705 0.657167 4.94838 0.964803 4.83535 1.31745L4.11656 3.55778H1.75002C1.38154 3.55831 1.02266 3.67526 0.72463 3.89194C0.426599 4.10862 0.204663 4.41394 0.0905233 4.76429C-0.0236164 5.11463 -0.0241215 5.49209 0.0890799 5.84275C0.202281 6.1934 0.423399 6.49931 0.720849 6.71678H0.718683Z" fill="white"/>
</svg>
